<svg width="31" height="30" viewBox="0 0 31 30" fill="none" xmlns="http://www.w3.org/2000/svg">
<g id="&#240;&#159;&#166;&#134; icon &#34;circle linkedin&#34;">
<path id="Vector" d="M15.3122 0C17.391 0 19.3384 0.394265 21.1545 1.1828C22.9705 1.97133 24.5595 3.04062 25.9215 4.39068C27.2835 5.74074 28.3588 7.32378 29.1473 9.13979C29.9358 10.9558 30.3301 12.9032 30.3301 14.9821C30.3301 17.0609 29.9358 19.0084 29.1473 20.8244C28.3588 22.6404 27.2835 24.2294 25.9215 25.5914C24.5595 26.9534 22.9705 28.0287 21.1545 28.8172C19.3384 29.6057 17.391 30 15.3122 30C13.2333 30 11.2859 29.6057 9.46986 28.8172C7.65385 28.0287 6.07082 26.9534 4.72076 25.5914C3.3707 24.2294 2.3014 22.6404 1.51287 20.8244C0.724343 19.0084 0.330078 17.0609 0.330078 14.9821C0.330078 12.9032 0.724343 10.9558 1.51287 9.13979C2.3014 7.32378 3.3707 5.74074 4.72076 4.39068C6.07082 3.04062 7.65385 1.97133 9.46986 1.1828C11.2859 0.394265 13.2333 0 15.3122 0ZM10.6527 11.2545H6.88922V23.4409H10.6527V11.2545ZM8.75302 10.2867C9.2787 10.2867 9.72673 10.1075 10.0971 9.7491C10.4675 9.39068 10.6527 8.94863 10.6527 8.42294C10.6527 7.89725 10.4675 7.4552 10.0971 7.09677C9.72673 6.73835 9.2787 6.55914 8.75302 6.55914C8.22733 6.55914 7.78528 6.73835 7.42685 7.09677C7.06843 7.4552 6.88922 7.89725 6.88922 8.42294C6.88922 8.94863 7.06843 9.39068 7.42685 9.7491C7.78528 10.1075 8.22733 10.2867 8.75302 10.2867ZM23.7709 16.3799C23.7709 15.5197 23.532 14.6774 23.0541 13.853C22.5762 13.0287 21.9549 12.4014 21.1903 11.9713C20.4973 11.589 19.6909 11.3859 18.7709 11.362C17.851 11.3381 17.0087 11.4934 16.2441 11.828V11.2545H12.5165V23.4409H16.2441V15.9857L17.8211 15.233C18.0123 15.1374 18.2691 15.0896 18.5917 15.0896C18.9143 15.0896 19.1712 15.1493 19.3623 15.2688C19.5057 15.3405 19.6491 15.4958 19.7924 15.7348C19.9358 15.9737 20.0075 16.1888 20.0075 16.3799V23.4409H23.7709V16.3799Z" fill="white"/>
</g>
</svg>
