<svg width="31" height="30" viewBox="0 0 31 30" fill="none" xmlns="http://www.w3.org/2000/svg">
<g id="&#240;&#159;&#166;&#134; icon &#34;circle instagram&#34;">
<path id="Vector" d="M15.1688 18.3154C14.7148 18.3154 14.2907 18.2318 13.8964 18.0645C13.5021 17.8973 13.1556 17.6643 12.857 17.3656C12.5583 17.0669 12.3253 16.7145 12.158 16.3082C11.9908 15.902 11.9071 15.4719 11.9071 15.0179C11.9071 14.5639 11.9908 14.1398 12.158 13.7455C12.3253 13.3513 12.5583 13.0048 12.857 12.7061C13.1556 12.4074 13.5021 12.1744 13.8964 12.0072C14.2907 11.8399 14.7148 11.7563 15.1688 11.7563C16.0768 11.7563 16.8474 12.0729 17.4806 12.7061C18.1138 13.3393 18.4304 14.1099 18.4304 15.0179C18.4304 15.4719 18.3468 15.902 18.1795 16.3082C18.0123 16.7145 17.7793 17.0669 17.4806 17.3656C17.1819 17.6643 16.8355 17.8973 16.4412 18.0645C16.0469 18.2318 15.6228 18.3154 15.1688 18.3154ZM20.4018 15.0179C20.4018 14.8029 20.3898 14.5818 20.3659 14.3548C20.342 14.1278 20.3062 13.9188 20.2584 13.7276H21.7279V20.9319C21.7279 21.1231 21.6682 21.2784 21.5487 21.3979C21.4292 21.5173 21.2739 21.5771 21.0828 21.5771H9.25481C9.06365 21.5771 8.90833 21.5173 8.78886 21.3979C8.66939 21.2784 8.60965 21.1231 8.60965 20.9319V13.7276H10.0792C10.0314 13.9188 9.99555 14.1278 9.97166 14.3548C9.94776 14.5818 9.93581 14.8029 9.93581 15.0179C9.93581 15.7348 10.0732 16.4158 10.348 17.0609C10.6228 17.7061 10.9932 18.2676 11.4591 18.7455C11.9251 19.2234 12.4806 19.5998 13.1258 19.8746C13.7709 20.1493 14.4519 20.2867 15.1688 20.2867C15.8856 20.2867 16.5666 20.1493 17.2118 19.8746C17.857 19.5998 18.4125 19.2234 18.8785 18.7455C19.3444 18.2676 19.7148 17.7061 19.9896 17.0609C20.2644 16.4158 20.4018 15.7348 20.4018 15.0179ZM15.3122 0C17.391 0 19.3384 0.394265 21.1545 1.1828C22.9705 1.97133 24.5595 3.04062 25.9215 4.39068C27.2835 5.74074 28.3588 7.32378 29.1473 9.13979C29.9358 10.9558 30.3301 12.9032 30.3301 14.9821C30.3301 17.0609 29.9358 19.0084 29.1473 20.8244C28.3588 22.6404 27.2835 24.2294 25.9215 25.5914C24.5595 26.9534 22.9705 28.0287 21.1545 28.8172C19.3384 29.6057 17.391 30 15.3122 30C13.2333 30 11.2859 29.6057 9.46986 28.8172C7.65385 28.0287 6.07082 26.9534 4.72076 25.5914C3.3707 24.2294 2.3014 22.6404 1.51287 20.8244C0.724343 19.0084 0.330078 17.0609 0.330078 14.9821C0.330078 12.9032 0.724343 10.9558 1.51287 9.13979C2.3014 7.32378 3.3707 5.74074 4.72076 4.39068C6.07082 3.04062 7.65385 1.97133 9.46986 1.1828C11.2859 0.394265 13.2333 0 15.3122 0ZM23.6993 8.45878C23.6993 7.9092 23.5081 7.44325 23.1258 7.06093C22.7435 6.67861 22.2775 6.48746 21.7279 6.48746H8.60965C8.06007 6.48746 7.59412 6.67861 7.2118 7.06093C6.82948 7.44325 6.63832 7.9092 6.63832 8.45878V21.5771C6.63832 22.1266 6.82948 22.5926 7.2118 22.9749C7.59412 23.3572 8.06007 23.5484 8.60965 23.5484H21.7279C22.2775 23.5484 22.7435 23.3572 23.1258 22.9749C23.5081 22.5926 23.6993 22.1266 23.6993 21.5771V8.45878ZM21.0828 8.45878C21.2739 8.45878 21.4292 8.52449 21.5487 8.65591C21.6682 8.78734 21.7279 8.94863 21.7279 9.13979V11.1111C21.7279 11.3023 21.6682 11.4576 21.5487 11.5771C21.4292 11.6965 21.2739 11.7563 21.0828 11.7563H19.1114C18.9203 11.7563 18.759 11.6965 18.6276 11.5771C18.4961 11.4576 18.4304 11.3023 18.4304 11.1111V9.13979C18.4304 8.94863 18.4961 8.78734 18.6276 8.65591C18.759 8.52449 18.9203 8.45878 19.1114 8.45878H21.0828Z" fill="white"/>
</g>
</svg>
