<svg width="31" height="30" viewBox="0 0 31 30" fill="none" xmlns="http://www.w3.org/2000/svg">
<g id="&#240;&#159;&#166;&#134; icon &#34;circle vimeo&#34;">
<path id="Vector" d="M15.348 0C17.4269 0 19.3743 0.394265 21.1903 1.1828C23.0063 1.97133 24.5893 3.04062 25.9394 4.39068C27.2895 5.74074 28.3588 7.32378 29.1473 9.13979C29.9358 10.9558 30.3301 12.9032 30.3301 14.9821C30.3301 17.0609 29.9358 19.0084 29.1473 20.8244C28.3588 22.6404 27.2895 24.2294 25.9394 25.5914C24.5893 26.9534 23.0063 28.0287 21.1903 28.8172C19.3743 29.6057 17.4269 30 15.348 30C13.2691 30 11.3217 29.6057 9.50571 28.8172C7.6897 28.0287 6.10069 26.9534 4.73868 25.5914C3.37667 24.2294 2.3014 22.6404 1.51287 20.8244C0.724343 19.0084 0.330078 17.0609 0.330078 14.9821C0.330078 12.9032 0.724343 10.9558 1.51287 9.13979C2.3014 7.32378 3.37667 5.74074 4.73868 4.39068C6.10069 3.04062 7.6897 1.97133 9.50571 1.1828C11.3217 0.394265 13.2691 0 15.348 0ZM23.6634 11.7921C23.8307 10.9558 23.7889 10.2808 23.538 9.76703C23.2871 9.25329 22.9167 8.88889 22.4269 8.67384C21.937 8.45878 21.3815 8.3871 20.7602 8.45878C20.1389 8.53047 19.5415 8.72163 18.9681 9.03226C18.3946 9.34289 17.8809 9.76703 17.4269 10.3047C16.9729 10.8423 16.6861 11.4815 16.5666 12.2222C17.0445 11.9355 17.4627 11.81 17.8211 11.8459C18.1795 11.8817 18.4543 12.0131 18.6455 12.2401C18.8367 12.4671 18.9263 12.7778 18.9143 13.172C18.9024 13.5663 18.7769 13.9785 18.538 14.4086C18.0601 15.2927 17.612 15.9976 17.1939 16.5233C16.7757 17.049 16.4352 17.3118 16.1724 17.3118C15.9334 17.3118 15.7124 17.037 15.5093 16.4875C15.3062 15.9379 15.0732 15.1374 14.8104 14.086C14.667 13.5603 14.5475 12.957 14.4519 12.276C14.3564 11.595 14.219 10.9618 14.0398 10.3763C13.8605 9.79092 13.6096 9.319 13.2871 8.96057C12.9645 8.60215 12.5165 8.47073 11.943 8.56631C11.3934 8.68578 10.8259 8.94265 10.2405 9.33692C9.65505 9.73118 9.11144 10.1434 8.60965 10.5735C8.01228 11.0753 7.4388 11.6368 6.88922 12.2581L7.57022 13.1183C7.83307 12.9271 8.09591 12.7718 8.35875 12.6523C8.57381 12.5329 8.78289 12.4612 8.98599 12.4373C9.1891 12.4134 9.35039 12.4612 9.46986 12.5806C9.54155 12.6762 9.64908 12.9152 9.79244 13.2975C9.93581 13.6798 10.0971 14.1398 10.2763 14.6774C10.4555 15.2151 10.6467 15.7945 10.8498 16.4158C11.0529 17.037 11.2441 17.6344 11.4233 18.2079C11.6025 18.7814 11.7757 19.2951 11.943 19.7491C12.1102 20.2031 12.2417 20.5257 12.3372 20.7168C12.4806 20.9797 12.6718 21.2485 12.9107 21.5233C13.1497 21.7981 13.4245 22.0191 13.7351 22.1864C14.0457 22.3536 14.3803 22.4492 14.7387 22.4731C15.0971 22.497 15.4794 22.3895 15.8856 22.1505C16.268 21.9116 16.8474 21.4755 17.624 20.8423C18.4006 20.2091 19.1951 19.4325 20.0075 18.5125C20.8199 17.5926 21.5726 16.5591 22.2656 15.4122C22.9585 14.2652 23.4245 13.0585 23.6634 11.7921Z" fill="white"/>
</g>
</svg>
