<svg width="49" height="48" viewBox="0 0 49 48" fill="none" xmlns="http://www.w3.org/2000/svg">
<path id="Vector" d="M24.2447 0.59375C11.0959 0.59375 0.335858 11.0695 0.250545 23.9475C0.207888 30.2246 2.67129 36.1466 7.17154 40.6064C11.6718 45.0766 17.6863 47.552 24.0954 47.5937C24.0954 47.5937 24.2447 47.5937 24.2554 47.5937C37.4042 47.5937 48.1643 37.118 48.2496 24.24C48.3243 11.2889 37.6282 0.677306 24.2447 0.59375ZM43.0989 32.5746L33.5758 24.0937L43.1095 15.6129C44.3466 18.2344 45.0291 21.1484 45.0077 24.2191C44.9864 27.1957 44.3039 30.0262 43.0989 32.5746ZM24.3727 3.75842C31.5496 3.80019 37.8628 7.42442 41.5632 12.8869L24.2447 28.3029L18.2515 22.9657L6.94759 12.9077C10.6694 7.40353 17.0785 3.75842 24.3727 3.75842ZM5.39064 15.6129L14.9137 24.0937L5.36931 32.5851C4.11094 29.9217 3.46044 26.9869 3.48176 23.9684C3.50309 20.9918 4.18559 18.1613 5.39064 15.6129ZM24.2447 44.4291H24.1061C18.5608 44.3978 13.3674 42.2462 9.46432 38.3817C8.50455 37.4313 7.65142 36.3973 6.90494 35.3006L17.2064 26.1409L23.1997 31.4675C23.4983 31.7286 23.8715 31.8644 24.2447 31.8644C24.618 31.8644 24.9912 31.7286 25.2898 31.4675L31.283 26.1409L41.5632 35.2902C37.8308 40.784 31.4537 44.4291 24.2447 44.4291Z" fill="#FC0606"/>
</svg>
