<svg width="858" height="519" viewBox="0 0 858 519" fill="none" xmlns="http://www.w3.org/2000/svg">
<path d="M857.327 229.414C857.327 174.161 857.586 118.821 857.499 63.5681C857.413 23.6821 824.315 -4.54892 784.909 0.803742C761.922 3.91174 738.848 6.58808 715.775 9.35074C686.48 12.8904 657.184 16.6891 627.889 19.8834C591.334 23.7684 554.693 28.2577 517.966 30.4161C482.103 32.5744 446.067 32.4017 410.117 32.7471C367.513 33.0924 324.996 30.5024 282.652 25.8404C253.183 22.5597 223.715 19.0201 194.247 15.4804C156.483 10.9047 118.805 6.32908 81.0402 1.66708C67.6456 -0.0595911 54.3373 -1.18192 41.4611 3.82541C15.7088 13.9264 0.585762 35.9414 0.499345 63.6544C0.412928 128.75 0.499345 193.845 0.499345 258.94H0.845014C0.845014 317.474 0.845014 375.922 0.845014 434.456C0.845014 444.298 0.240093 454.14 1.2771 463.896C4.73379 497.22 37.0538 521.998 70.2381 517.595C94.6077 514.401 119.064 511.724 143.434 508.789C172.383 505.336 201.333 501.451 230.283 498.343C267.183 494.371 304.083 489.709 341.156 487.81C384.365 485.652 427.66 485.047 470.869 485.911C508.46 486.688 546.138 489.709 583.557 493.163C618.815 496.443 653.9 501.537 689.072 505.854C719.664 509.566 750.342 513.537 781.02 516.732C790.353 517.681 800.118 518.027 809.279 516.214C838.055 510.429 857.413 484.443 857.327 453.363C857.327 378.771 857.154 304.179 857.154 229.587L857.327 229.414ZM720.442 169.067C720.442 183.83 708.516 196.694 693.134 197.73C626.852 202.047 560.57 204.982 494.115 206.536C478.214 206.881 465.511 219.831 465.511 235.717V362.022C465.511 378.253 452.289 391.376 436.129 391.289C431.376 391.289 426.796 391.289 422.043 391.289C405.796 391.376 392.661 378.253 392.661 362.022V235.717C392.661 219.831 379.958 206.881 364.057 206.536C297.602 204.982 231.406 202.047 165.038 197.73C149.656 196.694 137.73 183.917 137.73 168.549V156.376C137.73 138.764 153.112 125.21 170.569 127.368C344.008 149.211 514.164 149.211 687.603 127.368C705.059 125.21 720.442 138.764 720.442 156.376V169.067Z" fill="#FC0606"/>
</svg>
