<svg width="171" height="21" viewBox="0 0 171 21" fill="none" xmlns="http://www.w3.org/2000/svg">
<path d="M65.091 6.65698H61.2167V16.914H58.8546V6.65698H54.9628V4.54839H65.091V6.65698Z" fill="white"/>
<path d="M78.4898 14.8114V16.92H70.0438V4.55435H78.3374V6.66294H72.4059V9.64117H77.5286V11.5889H72.4059V14.8114H78.4898Z" fill="white"/>
<path d="M83.1026 10.6478C83.1026 9.89134 83.2316 9.14678 83.4954 8.40818C83.7591 7.66958 84.1401 7.01437 84.6324 6.43063C85.1306 5.85286 85.7402 5.3823 86.4553 5.01895C87.1762 4.66156 87.9968 4.47691 88.9229 4.47691C90.0072 4.47691 90.945 4.72709 91.7421 5.22743C92.5334 5.72777 93.1195 6.37703 93.5005 7.17519L91.6835 8.44392C91.5487 8.09844 91.367 7.80062 91.1502 7.56236C90.9333 7.3241 90.693 7.1335 90.4409 6.9965C90.183 6.8595 89.9193 6.75824 89.6438 6.69272C89.3683 6.6272 89.1046 6.59741 88.8584 6.59741C88.2957 6.59741 87.8092 6.7225 87.3872 6.96076C86.9652 7.20497 86.6135 7.52067 86.3322 7.90784C86.0509 8.29501 85.8399 8.73578 85.6992 9.23017C85.5585 9.72456 85.4823 10.213 85.4823 10.7014C85.4823 11.2494 85.5644 11.7736 85.7285 12.2799C85.8926 12.7862 86.1271 13.227 86.4318 13.6141C86.7366 13.9953 87.0942 14.3051 87.522 14.5374C87.944 14.7697 88.4071 14.8829 88.9111 14.8829C89.1749 14.8829 89.4445 14.8471 89.7141 14.7816C89.9896 14.7101 90.2534 14.6029 90.5113 14.448C90.7692 14.2932 91.0036 14.1026 91.2205 13.8643C91.4373 13.626 91.6132 13.3401 91.7539 13.0006L93.6881 14.1323C93.5064 14.5969 93.2426 15.0079 92.8909 15.3594C92.5393 15.7108 92.1466 16.0146 91.7011 16.2528C91.2557 16.4971 90.7868 16.6817 90.2944 16.8127C89.8021 16.9378 89.3156 17.0034 88.835 17.0034C87.9909 17.0034 87.2172 16.8187 86.5139 16.4434C85.8105 16.0741 85.2068 15.5857 84.6969 14.9901C84.187 14.3944 83.7943 13.7154 83.5129 12.953C83.2316 12.1905 83.0909 11.4162 83.0909 10.6299L83.1026 10.6478Z" fill="white"/>
<path d="M108.963 4.55435V16.92H106.612V11.6425H101.097V16.92H98.7346V4.55435H101.097V9.55182H106.612V4.55435H108.963Z" fill="white"/>
<path d="M117.285 8.99191V16.914H114.923V4.55435H116.758L123.1 12.667V4.57222H125.462V16.92H123.545L117.291 8.99787L117.285 8.99191Z" fill="white"/>
<path d="M130.192 16.914L134.992 4.54839H136.909L141.692 16.914H139.189L138.075 13.8345H133.808L132.695 16.914H130.192ZM135.948 7.14541L134.201 12.1429H137.647L135.954 7.14541H135.948Z" fill="white"/>
<path d="M145.701 10.6478C145.701 9.89134 145.83 9.14678 146.094 8.40818C146.357 7.66958 146.738 7.01437 147.231 6.43063C147.723 5.8469 148.338 5.3823 149.053 5.01895C149.774 4.66156 150.595 4.47691 151.521 4.47691C152.605 4.47691 153.549 4.72709 154.34 5.22743C155.132 5.72777 155.718 6.37703 156.099 7.17519L154.282 8.44392C154.147 8.09844 153.965 7.80062 153.748 7.56236C153.531 7.3241 153.297 7.1335 153.039 6.9965C152.781 6.8595 152.517 6.75824 152.242 6.69272C151.967 6.6272 151.703 6.59741 151.457 6.59741C150.894 6.59741 150.407 6.7225 149.985 6.96076C149.563 7.20497 149.212 7.52067 148.93 7.90784C148.649 8.29501 148.438 8.73578 148.297 9.23017C148.157 9.72456 148.08 10.213 148.08 10.7014C148.08 11.2494 148.163 11.7736 148.327 12.2799C148.491 12.7862 148.725 13.227 149.03 13.6141C149.335 13.9953 149.692 14.3051 150.12 14.5374C150.542 14.7697 151.005 14.8829 151.509 14.8829C151.773 14.8829 152.043 14.8471 152.312 14.7816C152.588 14.7101 152.852 14.6029 153.109 14.448C153.367 14.2932 153.602 14.1026 153.819 13.8643C154.036 13.626 154.211 13.3401 154.352 13.0006L156.286 14.1323C156.105 14.5969 155.835 15.0079 155.489 15.3594C155.143 15.7108 154.745 16.0146 154.299 16.2528C153.854 16.4971 153.385 16.6817 152.893 16.8127C152.4 16.9378 151.914 17.0034 151.439 17.0034C150.595 17.0034 149.821 16.8187 149.118 16.4434C148.415 16.0741 147.811 15.5857 147.301 14.9901C146.791 14.3944 146.398 13.7154 146.117 12.953C145.836 12.1905 145.695 11.4162 145.695 10.6299L145.701 10.6478Z" fill="white"/>
<path d="M162.271 4.55435L165.272 10.5108L168.319 4.55435H170.875L166.456 12.6015V16.92H164.105V12.5658L159.703 4.55435H162.271Z" fill="white"/>
<path d="M40.8196 1.47489C40.2041 0.920939 39.3835 0.670767 38.5688 0.772027C26.8463 2.27306 15.4462 2.27306 3.71783 0.772027C2.90311 0.670767 2.08254 0.920939 1.46711 1.47489C0.851675 2.02884 0.5 2.82105 0.5 3.65495V4.49482C0.5 6.02563 1.67225 7.30031 3.17273 7.40157C7.65659 7.69939 12.2108 7.90787 16.7064 8.00913C17.3159 8.02104 17.7907 8.51543 17.7907 9.12894V17.8432C17.7907 18.6235 18.0896 19.3562 18.6347 19.9042C19.174 20.4522 19.889 20.75 20.651 20.75H20.6686C20.9851 20.75 21.2957 20.75 21.6181 20.75H21.6357C22.3976 20.75 23.1127 20.4522 23.652 19.9042C24.197 19.3562 24.496 18.6235 24.496 17.8432V9.12894C24.496 8.51543 24.9707 8.02104 25.5803 8.00913C30.0817 7.90191 34.6359 7.69939 39.1139 7.39561C40.6144 7.29435 41.7867 6.03754 41.7867 4.53055V3.65495C41.7867 2.82105 41.435 2.02288 40.8196 1.47489Z" fill="#FC0606"/>
</svg>
