<svg width="120" height="49" viewBox="0 0 120 49" fill="none" xmlns="http://www.w3.org/2000/svg">
<g id="svg14469" clip-path="url(#clip0_932_4601)">
<g id="layer1">
<g id="g3193">
<path id="path3195" d="M-0.457031 25.2402L19.4115 5.53081C25.062 -0.000940442 28.5937 -2 39.6016 -2H89.2739L78.9386 8.17515H42.005C33.3406 8.17515 31.25 9.36543 27.2638 13.2229L14.9261 25.2402H-0.457031Z" fill="#FC0606"/>
<path id="path3197" d="M17.7305 25.2415L28.9291 14.0254C31.8689 11.1281 33.8428 9.85938 40.8178 9.85938H77.3382L67.804 19.3773H42.0059C38.0819 19.3773 36.8458 20.4215 35.9171 21.3262L31.9909 25.2415H17.7305Z" fill="#FC0606"/>
<path id="path3199" d="M64.2305 25.2402L91.4064 -2H108.503L81.2628 25.2402H64.2305Z" fill="#FC0606"/>
<g id="g3201">
<path id="path3203" d="M89.2942 25.2495V22.3566H88.25V21.8672H90.9303V22.3566H89.8643V25.2495H89.2942Z" fill="#FC0606"/>
<path id="path3205" d="M91.3594 25.2495V21.8672H92.2248L92.9758 23.9207C93.05 24.1442 93.1034 24.311 93.1372 24.4211C93.1753 24.2979 93.2353 24.1169 93.317 23.8793L94.0212 21.8672H94.8714V25.2495H94.3471V22.6171L93.3704 25.2495H92.8679C92.542 24.5529 92.3088 23.5371 91.9829 22.6803V25.2495H91.3594Z" fill="#FC0606"/>
</g>
</g>
<path id="path3207" d="M-0.5 45.4538V29.6641H11.5205V31.7765H1.92743V36.4591H11.1357V38.5726H1.92743V45.4538H-0.5Z" fill="white"/>
<path id="path3209" d="M18.1439 32.5625C14.0106 32.5625 12.6328 35.1055 12.6328 37.8305V40.3429C12.6328 43.6783 14.4411 45.7112 17.9967 45.7112H19.8214C22.9475 45.7112 25.5962 44.2985 25.5962 40.162V38.0299C25.5962 35.1458 24.177 32.5625 19.914 32.5625H18.1439ZM18.0294 34.5474H20.2846C22.5998 34.5474 23.1688 35.9121 23.1688 37.4315V40.7724C23.1688 42.7976 22.2957 43.7132 20.2279 43.7132H17.601C16.0009 43.7132 15.0319 42.6679 15.0319 40.6579V37.546C15.0319 35.3812 16.1546 34.5474 18.0305 34.5474H18.0294Z" fill="white"/>
<path id="path3211" d="M27.6261 45.456V36.1692C27.6261 34.0611 28.3825 32.8359 31.452 32.8359H34.5639V34.9342H31.9937C30.3718 34.9342 29.938 35.6939 29.938 36.6891L29.9096 45.4276L27.625 45.456H27.6261Z" fill="white"/>
<path id="path3213" d="M36.5323 45.456V32.8359H38.8453V35.5195C38.9009 34.3663 39.6694 32.8359 41.8723 32.8359H43.8419C46.4132 32.8359 47.0236 34.9244 47.0236 34.9244C47.0236 34.9244 47.2351 32.8359 49.923 32.8359H51.8643C54.7212 32.8359 55.6618 34.6966 55.6618 37.1185V45.456H53.3489V36.9474C53.3489 35.4312 52.6763 34.9342 51.328 34.9342H49.2777C47.6939 34.9342 47.2536 35.7539 47.2536 36.9758V45.456H44.9406V36.9191C44.9406 35.6907 44.5253 34.9342 42.899 34.9342H40.8716C39.6072 34.9342 38.8442 35.4214 38.8442 36.9474V45.456H36.5312H36.5323Z" fill="white"/>
<path id="path3215" d="M58.005 32.8359V41.1734C58.005 43.6139 58.9686 45.456 61.8592 45.456H69.2549V32.8359H66.9419V43.3435H62.1448C60.8913 43.3435 60.3169 42.6448 60.3169 41.423V32.8359H58.0039H58.005Z" fill="white"/>
<path id="path3217" d="M72.0078 29.6641H74.3208V45.4538H72.0078V29.6641Z" fill="white"/>
<path id="path3219" d="M76.7077 32.8359V34.835H84.959L78.6206 38.8037C76.9104 39.8904 76.1289 40.6927 76.1289 42.3516C76.1289 44.6744 77.7116 45.457 79.7346 45.457H87.9412V36.6193C87.9412 35.8498 87.8006 34.5701 87.0442 33.8376C86.2877 33.1052 85.0168 32.837 83.6597 32.837H76.7077V32.8359ZM85.6446 36.6052V43.3435H79.8774C79.109 43.3435 78.5411 43.0274 78.5411 42.126C78.5411 41.2246 79.0534 40.794 79.8196 40.2894L85.6446 36.6063V36.6052Z" fill="white"/>
<path id="path3223" d="M93.7539 45.4531V43.3396H98.5227V32.3753C98.5227 32.1071 98.3286 31.7758 97.9232 31.7758H94.24V29.6797H98.3799C100.335 29.6797 100.936 30.8798 100.936 32.2325V43.3396H105.148V45.4531H93.755H93.7539Z" fill="white"/>
</g>
</g>
<defs>
<clipPath id="clip0_932_4601">
<rect width="120" height="52.5264" fill="white" transform="translate(-0.5 -2)"/>
</clipPath>
</defs>
</svg>
