<svg width="586" height="265" viewBox="0 0 586 265" fill="none" xmlns="http://www.w3.org/2000/svg">
<path d="M585.125 42.0286C585.125 56.7824 573.153 69.6381 557.71 70.6735C491.168 74.9875 424.625 77.921 357.909 79.474C341.946 79.8191 329.193 92.7611 329.193 108.637V234.864C329.193 251.085 315.919 264.199 299.696 264.113C294.924 264.113 290.326 264.113 285.555 264.113C269.244 264.199 256.057 251.085 256.057 234.864V108.637C256.057 92.7611 243.304 79.8191 227.341 79.474C160.625 77.921 94.1695 74.9875 27.5404 70.6735C12.0978 69.6381 0.125364 56.8687 0.125364 41.5109V29.3454C0.0386072 11.7443 15.4813 -1.88788 33.0061 0.355395C207.127 22.1842 377.95 22.1842 552.071 0.355395C569.596 -1.8016 585.038 11.7443 585.038 29.3454V42.0286H585.125Z" fill="#FC0606"/>
</svg>
