<svg width="50" height="30" viewBox="0 0 50 30" fill="none" xmlns="http://www.w3.org/2000/svg">
<path d="M0 14.9955C0 11.2255 0 7.45554 0 3.68554C0.00504185 2.08054 0.887365 0.805538 2.38984 0.220538C3.14107 -0.0694617 3.91752 -0.00446172 4.699 0.0955383C6.89725 0.370538 9.10053 0.630538 11.2988 0.895538C13.018 1.10054 14.7373 1.30554 16.4566 1.49554C18.9271 1.76554 21.4077 1.91554 23.8933 1.89554C25.9907 1.88054 28.0932 1.88554 30.1855 1.76054C32.3283 1.63554 34.461 1.37554 36.5988 1.15054C38.313 0.970538 40.0171 0.750538 41.7263 0.540538C43.0725 0.380538 44.4187 0.225538 45.7598 0.0455383C48.0589 -0.264462 49.9899 1.37054 49.995 3.68054C50 6.88054 49.9849 10.0855 49.9849 13.2855C49.9849 17.6055 49.9899 21.9255 49.995 26.2455C49.995 28.0505 48.8706 29.5505 47.1917 29.8855C46.6623 29.9905 46.0875 29.9755 45.543 29.9155C43.7532 29.7305 41.9683 29.5005 40.1785 29.2855C38.1264 29.0405 36.0795 28.7405 34.0224 28.5505C31.8342 28.3505 29.641 28.1755 27.4478 28.1305C24.9269 28.0805 22.3959 28.1155 19.88 28.2405C17.7171 28.3505 15.5642 28.6205 13.4113 28.8505C11.7173 29.0305 10.0333 29.2555 8.34426 29.4555C6.92246 29.6255 5.49561 29.7805 4.07381 29.9655C2.14279 30.2205 0.252092 28.7855 0.0504185 26.8555C-0.0100837 26.2905 0.0252092 25.7205 0.0252092 25.1505C0.0252092 21.7605 0.0252092 18.3755 0.0252092 14.9855C0.0201674 14.9855 0.0100837 14.9855 0.00504185 14.9855L0 14.9955Z" fill="#FC0606"/>
<path d="M21.201 11.9554C17.3238 11.8654 13.4617 11.6954 9.58959 11.4454C8.69215 11.3854 7.99637 10.6454 7.99637 9.75539V9.05039C7.99637 8.03039 8.89382 7.24539 9.91227 7.37039C20.0313 8.63539 29.9587 8.63539 40.0776 7.37039C41.0961 7.24539 41.9935 8.03039 41.9935 9.05039V9.78539C41.9935 10.6404 41.2978 11.3854 40.4003 11.4454C36.5332 11.6954 32.6661 11.8654 28.7889 11.9554C27.8612 11.9754 27.1201 12.7254 27.1201 13.6454C27.1201 16.0854 27.1201 18.5204 27.1201 20.9604C27.1201 21.9004 26.3487 22.6604 25.4059 22.6554C25.1286 22.6554 24.8613 22.6554 24.584 22.6554C23.6362 22.6604 22.8698 21.9004 22.8698 20.9604C22.8698 18.5204 22.8698 16.0854 22.8698 13.6454C22.8698 12.7254 22.1287 11.9754 21.201 11.9554Z" fill="white"/>
</svg>
